<?xml version="1.0" encoding="UTF-8"?>
<!DOCTYPE svg PUBLIC "-//W3C//DTD SVG 1.1//EN" "http://www.w3.org/Graphics/SVG/1.1/DTD/svg11.dtd">
<!-- Creator: CorelDRAW 2019 (64-Bit Оценочная версия) -->
<svg xmlns="http://www.w3.org/2000/svg" xml:space="preserve" width="210mm" height="297mm" version="1.1" style="shape-rendering:geometricPrecision; text-rendering:geometricPrecision; image-rendering:optimizeQuality; fill-rule:evenodd; clip-rule:evenodd"
viewBox="0 0 21000 29700"
 xmlns:xlink="http://www.w3.org/1999/xlink"
 xmlns:xodm="http://www.corel.com/coreldraw/odm/2003">
 <defs>
  <style type="text/css">
   <![CDATA[
    .str0 {stroke:#2B2A29;stroke-width:7.62;stroke-miterlimit:22.9256}
    .str1 {stroke:black;stroke-width:7.62;stroke-miterlimit:22.9256}
    .fil1 {fill:none}
    .fil0 {fill:#2B2A29}
    .fil2 {fill:black}
   ]]>
  </style>
 </defs>
 <g id="Слой_x0020_1">
  <metadata id="CorelCorpID_0Corel-Layer"/>
  <g id="_1143569072">
   <g>
    <path class="fil0" d="M-6489.65 13777.28c6.52,0 5.31,-5.86 5.7,-12.39l0 -10.48c0,-2.3 -0.83,-5.09 -3.25,-6.23 -15.84,-7.48 -23.76,-9.38 -27.31,-11.02l-2.38 2.84 22.74 9.72c2.39,1.02 5.17,2.35 6.26,4.34 1.19,2.17 2.02,6.09 1.66,9.74 -0.48,4.83 1.02,9.73 -2.47,10.01l-0.95 3.47zm-85.67 1.3c-6.52,0 -8.24,-6.25 -8.63,-12.78l0 -10.48c0,-2.3 0.83,-5.08 3.25,-6.22 15.84,-7.49 23.76,-9.39 27.31,-11.02l2.38 2.83 -22.74 9.72c-2.39,1.02 -5.17,2.34 -6.26,4.34 -2.64,4.83 -1.9,13.25 1.68,17.52 1.96,2.33 5.22,2.37 8.19,2.37 28.37,0 81.44,-1.05 81.44,-1.05 0,0 -0.58,2.67 -0.95,3.47 -4.17,1.69 -74.52,1.3 -85.67,1.3z"/>
    <path id="1" class="fil1 str0" d="M-6489.65 13777.28c6.52,0 5.31,-5.86 5.7,-12.39l0 -10.48c0,-2.3 -0.83,-5.09 -3.25,-6.23 -15.84,-7.48 -23.76,-9.38 -27.31,-11.02l-2.38 2.84 22.74 9.72c2.39,1.02 5.17,2.35 6.26,4.34 1.19,2.17 2.02,6.09 1.66,9.74 -0.48,4.83 1.02,9.73 -2.47,10.01m-86.62 4.77c-6.52,0 -8.24,-6.25 -8.63,-12.78l0 -10.48c0,-2.3 0.83,-5.08 3.25,-6.22 15.84,-7.49 23.76,-9.39 27.31,-11.02l2.38 2.83 -22.74 9.72c-2.39,1.02 -5.17,2.34 -6.26,4.34 -2.64,4.83 -1.9,13.25 1.68,17.52 1.96,2.33 5.22,2.37 8.19,2.37 28.37,0 81.44,-1.05 81.44,-1.05 0,0 -0.58,2.67 -0.95,3.47 -4.17,1.69 -74.52,1.3 -85.67,1.3z"/>
   </g>
   <path class="fil2 str1" d="M-6534.5 13678.62c25.27,0 24.94,17.97 24.94,37.04 0,16 -3.38,33.81 -26.34,33.81 -19.63,0 -24.41,-22.81 -24.41,-35.78 0,-15.72 2.39,-35.07 25.81,-35.07zm0 3.93c23.38,0 20.84,16.43 20.84,33.56 0,14.03 -1.33,30.32 -22.24,30.32 -17.77,0 -20.32,-21.44 -20.32,-32.29 0,-13.61 0.54,-31.59 21.72,-31.59z"/>
  </g>
 </g>
</svg>
