<?xml version="1.0" encoding="UTF-8"?>
<!DOCTYPE svg PUBLIC "-//W3C//DTD SVG 1.1//EN" "http://www.w3.org/Graphics/SVG/1.1/DTD/svg11.dtd">
<!-- Creator: CorelDRAW 2019 (64-Bit Оценочная версия) -->
<svg xmlns="http://www.w3.org/2000/svg" xml:space="preserve" width="11.2mm" height="13.1mm" version="1.1" style="shape-rendering:geometricPrecision; text-rendering:geometricPrecision; image-rendering:optimizeQuality; fill-rule:evenodd; clip-rule:evenodd"
viewBox="0 0 41.24 48.24"
 xmlns:xlink="http://www.w3.org/1999/xlink"
 xmlns:xodm="http://www.corel.com/coreldraw/odm/2003">
 <defs>
  <style type="text/css">
   <![CDATA[
    .str0 {stroke:#2B2A29;stroke-width:0.74;stroke-miterlimit:22.9256}
    .fil3 {fill:none}
    .fil1 {fill:#FEFEFE}
    .fil2 {fill:#2B2A29}
    .fil0 {fill:black}
   ]]>
  </style>
 </defs>
 <g id="Слой_x0020_1">
  <metadata id="CorelCorpID_0Corel-Layer"/>
  <g id="_1138600016">
   <path class="fil0" d="M8.76 15.74c0,5.63 0.11,8.78 2.64,12.87 0.25,0.4 0.51,0.77 0.78,1.11 0.22,-0.09 0.41,-0.18 0.57,-0.27l0.96 1.29 -0.41 0.2c4.42,4.1 11.13,3.07 14.94,-1.56l0.25 -0.34 0.01 0.01c1.61,-2.1 2.63,-4.89 2.63,-8.24 0,-7.59 1.45,-14.84 -4.74,-19.23 -1.9,-1.35 -4.34,-1.58 -6.45,-1.58 -2.24,0 -3.92,0.75 -5.89,2.28 -3.69,2.87 -5.3,7.57 -5.3,13.46zm19.48 13.64c0.09,-0.11 0.18,-0.22 0.27,-0.33l-0.01 -0.01 -0.25 0.34zm-17.27 -13.64c0,4.49 -0.11,7.8 2.31,11.71 1.37,2.22 3.47,3.69 6.11,3.84 2.39,0.13 4.75,-0.88 6.45,-2.54 2.15,-2.1 3.1,-4.98 3.1,-7.94 0,-4.06 0.73,-10.1 -0.86,-13.83 -0.64,-1.5 -1.62,-2.65 -2.95,-3.59 -1.43,-1.01 -3.47,-1.17 -5.17,-1.17 -1.84,0 -3.1,0.7 -4.54,1.82 -3.56,2.76 -4.44,7.45 -4.44,11.71z"/>
   <path class="fil1" d="M10.97 15.74c0,4.49 -0.11,7.8 2.31,11.71 1.37,2.22 3.47,3.69 6.11,3.84 2.39,0.13 4.75,-0.88 6.45,-2.54 2.15,-2.1 3.1,-4.98 3.1,-7.94 0,-4.06 0.73,-10.1 -0.86,-13.83 -0.64,-1.5 -1.62,-2.65 -2.95,-3.59 -1.43,-1.01 -3.47,-1.17 -5.17,-1.17 -1.84,0 -3.1,0.7 -4.54,1.82 -3.56,2.76 -4.44,7.45 -4.44,11.71z"/>
   <g>
    <path class="fil2" d="M38.56 47.26c2.64,0 2.15,-2.66 2.31,-5.63l0 -4.76c0,-1.04 -0.34,-2.31 -1.32,-2.83 -6.42,-3.4 -9.62,-4.26 -11.06,-5l-0.96 1.29 9.21 4.41c0.97,0.46 2.09,1.07 2.54,1.97 0.48,0.99 0.82,2.77 0.67,4.42 -0.19,2.19 0.41,4.42 -1,4.55l-0.39 1.57zm-34.7 0.59c-2.64,0 -3.34,-2.84 -3.5,-5.8l0 -4.76c0,-1.04 0.34,-2.31 1.32,-2.83 6.42,-3.4 9.62,-4.26 11.06,-5l0.96 1.29 -9.21 4.41c-0.97,0.46 -2.1,1.06 -2.54,1.97 -1.07,2.2 -0.77,6.02 0.68,7.96 0.79,1.06 2.11,1.07 3.32,1.07 11.49,0 32.99,-0.47 32.99,-0.47 0,0 -0.24,1.21 -0.39,1.57 -1.69,0.77 -30.18,0.59 -34.7,0.59z"/>
    <path id="1" class="fil3 str0" d="M38.56 47.26c2.64,0 2.15,-2.66 2.31,-5.63l0 -4.76c0,-1.04 -0.34,-2.31 -1.32,-2.83 -6.42,-3.4 -9.62,-4.26 -11.06,-5l-0.96 1.29 9.21 4.41c0.97,0.46 2.09,1.07 2.54,1.97 0.48,0.99 0.82,2.77 0.67,4.42 -0.19,2.19 0.41,4.42 -1,4.55m-35.09 2.16c-2.64,0 -3.34,-2.84 -3.5,-5.8l0 -4.76c0,-1.04 0.34,-2.31 1.32,-2.83 6.42,-3.4 9.62,-4.26 11.06,-5l0.96 1.29 -9.21 4.41c-0.97,0.46 -2.1,1.06 -2.54,1.97 -1.07,2.2 -0.77,6.02 0.68,7.96 0.79,1.06 2.11,1.07 3.32,1.07 11.49,0 32.99,-0.47 32.99,-0.47 0,0 -0.24,1.21 -0.39,1.57 -1.69,0.77 -30.18,0.59 -34.7,0.59z"/>
   </g>
  </g>
 </g>
</svg>
