<?xml version="1.0" encoding="UTF-8"?>
<!DOCTYPE svg PUBLIC "-//W3C//DTD SVG 1.1//EN" "http://www.w3.org/Graphics/SVG/1.1/DTD/svg11.dtd">
<!-- Creator: CorelDRAW 2019 (64-Bit Оценочная версия) -->
<svg xmlns="http://www.w3.org/2000/svg" xml:space="preserve" width="210mm" height="297mm" version="1.1" style="shape-rendering:geometricPrecision; text-rendering:geometricPrecision; image-rendering:optimizeQuality; fill-rule:evenodd; clip-rule:evenodd"
viewBox="0 0 21000 29700"
 xmlns:xlink="http://www.w3.org/1999/xlink"
 xmlns:xodm="http://www.corel.com/coreldraw/odm/2003">
 <defs>
  <style type="text/css">
   <![CDATA[
    .str0 {stroke:#2B2A29;stroke-width:20;stroke-miterlimit:22.9256}
    .str1 {stroke:black;stroke-width:20;stroke-miterlimit:22.9256}
    .fil1 {fill:none}
    .fil0 {fill:#2B2A29}
    .fil2 {fill:black}
   ]]>
  </style>
 </defs>
 <g id="Слой_x0020_1">
  <metadata id="CorelCorpID_0Corel-Layer"/>
  <g>
   <path class="fil0" d="M-6309.87 13835.94c-3.74,-1.64 -7.15,-3.22 -10.26,-4.78l-26.15 34.02 15.79 7.36 20.62 -36.6zm-448.53 11.11c3.88,-1.7 7.42,-3.33 10.63,-4.95l26.15 34.02 -14.45 6.74c-8.11,-11.29 -15.53,-23.28 -22.33,-35.81z"/>
   <path id="1" class="fil1 str0" d="M-6309.87 13835.94c-3.74,-1.64 -7.15,-3.22 -10.26,-4.78l-26.15 34.02 15.79 7.36m-427.91 -25.49c3.88,-1.7 7.42,-3.33 10.63,-4.95l26.15 34.02 -14.45 6.74c-8.11,-11.29 -15.53,-23.28 -22.33,-35.81z"/>
  </g>
  <g>
   <g>
    <path class="fil0" d="M-6046.65 14312.49c71.76,0 58.45,-70.26 62.7,-148.65l0 -125.78c0,-27.56 -9.18,-61.01 -35.74,-74.69 -174.28,-89.76 -261.38,-112.56 -300.44,-132.22l-26.15 34.02 250.1 116.61c26.33,12.27 56.86,28.18 68.88,52.09 13.11,26.07 22.25,73.06 18.28,116.92 -5.26,57.93 11.23,116.76 -27.13,120.16l-10.5 41.54zm-942.35 15.66c-71.75,0 -90.7,-74.97 -94.95,-153.36l0 -125.78c0,-27.56 9.18,-61.01 35.74,-74.69 174.28,-89.76 261.38,-112.56 300.44,-132.21l26.15 34.01 -250.1 116.61c-26.34,12.27 -56.9,28.13 -68.88,52.09 -29.02,58.01 -20.96,159.01 18.48,210.27 21.51,27.97 57.38,28.39 90.1,28.39 312.08,0 895.87,-12.53 895.87,-12.53 0,0 -6.41,31.98 -10.5,41.54 -45.91,20.37 -819.7,15.66 -942.35,15.66z"/>
    <path id="1" class="fil1 str0" d="M-6046.65 14312.49c71.76,0 58.45,-70.26 62.7,-148.65l0 -125.78c0,-27.56 -9.18,-61.01 -35.74,-74.69 -174.28,-89.76 -261.38,-112.56 -300.44,-132.22l-26.15 34.02 250.1 116.61c26.33,12.27 56.86,28.18 68.88,52.09 13.11,26.07 22.25,73.06 18.28,116.92 -5.26,57.93 11.23,116.76 -27.13,120.16m-952.85 57.2c-71.75,0 -90.7,-74.97 -94.95,-153.36l0 -125.78c0,-27.56 9.18,-61.01 35.74,-74.69 174.28,-89.76 261.38,-112.56 300.44,-132.21l26.15 34.01 -250.1 116.61c-26.34,12.27 -56.9,28.13 -68.88,52.09 -29.02,58.01 -20.96,159.01 18.48,210.27 21.51,27.97 57.38,28.39 90.1,28.39 312.08,0 895.87,-12.53 895.87,-12.53 0,0 -6.41,31.98 -10.5,41.54 -45.91,20.37 -819.7,15.66 -942.35,15.66z"/>
   </g>
   <path class="fil2 str1" d="M-6540.03 13128.62c277.95,0 274.32,215.65 274.32,444.48 0,191.94 -37.1,405.75 -289.69,405.75 -215.93,0 -268.5,-273.77 -268.5,-429.36 0,-188.7 26.24,-420.87 283.87,-420.87zm-0.01 47.2c257.24,0 229.31,197.18 229.31,402.65 0,168.39 -14.7,363.92 -244.68,363.92 -195.41,0 -223.48,-257.35 -223.48,-387.53 0,-163.37 5.88,-379.04 238.85,-379.04z"/>
  </g>
 </g>
</svg>
