<?xml version="1.0" encoding="UTF-8"?>
<!DOCTYPE svg PUBLIC "-//W3C//DTD SVG 1.1//EN" "http://www.w3.org/Graphics/SVG/1.1/DTD/svg11.dtd">
<!-- Creator: CorelDRAW 2019 (64-Bit Оценочная версия) -->
<svg xmlns="http://www.w3.org/2000/svg" xml:space="preserve" width="11.2mm" height="12.1999mm" version="1.1" style="shape-rendering:geometricPrecision; text-rendering:geometricPrecision; image-rendering:optimizeQuality; fill-rule:evenodd; clip-rule:evenodd"
viewBox="0 0 35.65 38.83"
 xmlns:xlink="http://www.w3.org/1999/xlink"
 xmlns:xodm="http://www.corel.com/coreldraw/odm/2003">
 <defs>
  <style type="text/css">
   <![CDATA[
    .str0 {stroke:#2B2A29;stroke-width:0.64;stroke-miterlimit:22.9256}
    .str1 {stroke:black;stroke-width:0.64;stroke-miterlimit:22.9256}
    .fil1 {fill:none}
    .fil0 {fill:#2B2A29}
    .fil2 {fill:black}
   ]]>
  </style>
 </defs>
 <g id="Слой_x0020_1">
  <metadata id="CorelCorpID_0Corel-Layer"/>
  <g id="_1118342480">
   <g>
    <path class="fil0" d="M33.33 38c2.28,0 1.86,-2.24 2,-4.73l0 -4c0,-0.88 -0.29,-1.94 -1.14,-2.38 -5.55,-2.86 -8.32,-3.58 -9.56,-4.21l-0.83 1.08 7.96 3.71c0.84,0.39 1.81,0.9 2.19,1.66 0.42,0.83 0.71,2.33 0.58,3.72 -0.17,1.84 0.36,3.72 -0.86,3.82l-0.33 1.32zm-29.99 0.5c-2.28,0 -2.89,-2.39 -3.02,-4.88l0 -4c0,-0.88 0.29,-1.94 1.14,-2.38 5.55,-2.86 8.32,-3.58 9.56,-4.21l0.83 1.08 -7.96 3.71c-0.84,0.39 -1.81,0.9 -2.19,1.66 -0.92,1.85 -0.67,5.06 0.59,6.69 0.68,0.89 1.83,0.9 2.87,0.9 9.93,0 28.51,-0.4 28.51,-0.4 0,0 -0.2,1.02 -0.33,1.32 -1.46,0.65 -26.09,0.5 -29.99,0.5z"/>
    <path id="1" class="fil1 str0" d="M33.33 38c2.28,0 1.86,-2.24 2,-4.73l0 -4c0,-0.88 -0.29,-1.94 -1.14,-2.38 -5.55,-2.86 -8.32,-3.58 -9.56,-4.21l-0.83 1.08 7.96 3.71c0.84,0.39 1.81,0.9 2.19,1.66 0.42,0.83 0.71,2.33 0.58,3.72 -0.17,1.84 0.36,3.72 -0.86,3.82m-30.33 1.82c-2.28,0 -2.89,-2.39 -3.02,-4.88l0 -4c0,-0.88 0.29,-1.94 1.14,-2.38 5.55,-2.86 8.32,-3.58 9.56,-4.21l0.83 1.08 -7.96 3.71c-0.84,0.39 -1.81,0.9 -2.19,1.66 -0.92,1.85 -0.67,5.06 0.59,6.69 0.68,0.89 1.83,0.9 2.87,0.9 9.93,0 28.51,-0.4 28.51,-0.4 0,0 -0.2,1.02 -0.33,1.32 -1.46,0.65 -26.09,0.5 -29.99,0.5z"/>
   </g>
   <path class="fil2 str1" d="M17.63 0.32c8.85,0 8.73,6.86 8.73,14.15 0,6.11 -1.18,12.91 -9.22,12.91 -6.87,0 -8.55,-8.71 -8.55,-13.67 0,-6.01 0.84,-13.4 9.04,-13.4zm-0 1.5c8.19,0 7.3,6.28 7.3,12.82 0,5.36 -0.47,11.58 -7.79,11.58 -6.22,0 -7.11,-8.19 -7.11,-12.33 0,-5.2 0.19,-12.06 7.6,-12.06z"/>
  </g>
 </g>
</svg>
